<?xml version="1.0" encoding="utf-8"?>

<svg version="1.1" id="Layer_1" xmlns="http://www.w3.org/2000/svg"
	xmlns:xlink="http://www.w3.org/1999/xlink" x="0px" y="0px"
	width="122.7px" height="95.8px" viewBox="0 0 122.7 95.8"
	style="enable-background:new 0 0 122.7 95.8;" xml:space="preserve">
<style type="text/css">
	.st0{fill:#FFEAD2;}
	.st1{fill-rule:evenodd;clip-rule:evenodd;fill:#FFEAD2;}
	.st2{fill:#FF4A04;}
	.st3{fill:#65260D;}
	.st4{fill:#3C2015;}
</style>
<path class="st0" d="M122.7,61.3c0,12.8-3.9,24.6-10.6,34.4c-12.2-1.4-24.5-2.4-37-2.8v-0.1L47.8,38c-2.6-5.1-7.8-8.4-13.6-8.4H8.8
	C19.6,11.8,39.1,0,61.3,0C95.2,0,122.7,27.4,122.7,61.3z"/>
<path class="st1" d="M0,61.3C0,74,3.8,85.7,10.4,95.5c12.9-1.5,26-2.4,39.2-2.7c-0.9-0.1-1.8-0.7-2.2-1.6L23.6,41.8
	c-2.8-5.9-8.8-9.6-15.3-9.6H7.5C2.7,40.8,0,50.7,0,61.3z M14.2,63.7l1.1,3.3c0.1,0.5,0.8,0.4,0.9,0l1-3.3c0.2-0.7,0.7-1.2,1.4-1.4
	l3.3-1.1c0.5-0.1,0.4-0.8,0-0.9l-3.3-1c-0.7-0.2-1.2-0.7-1.4-1.4l-1.1-3.3c-0.1-0.5-0.8-0.4-0.9,0l-1,3.3c-0.2,0.7-0.7,1.2-1.4,1.4
	l-3.3,1.1c-0.5,0.1-0.4,0.8,0,0.9l3.3,1C13.5,62.5,14,63,14.2,63.7z"/>
<path class="st2" d="M11.3,95.4c12.6-1.4,25.4-2.3,38.3-2.6c-0.9-0.1-1.8-0.7-2.2-1.6L35,65.5C25.8,74.3,17.8,84.3,11.3,95.4z"/>
<path class="st2" d="M54,50.5c17.5-11.4,37.8-18.9,59.6-21.2c5.7,9.3,9,20.3,9,32.1c0,12.8-3.9,24.6-10.6,34.4
	c-12.2-1.4-24.5-2.4-37-2.8v-0.1L54,50.5z"/>
<path class="st3" d="M113.6,29.2c0.7,1.1,1.3,2.2,1.9,3.3c-6.1,1.8-11.2,6-14.1,11.9L78.3,92.5c-0.1,0.2-0.2,0.4-0.3,0.5
	c-1,0-1.9-0.1-2.9-0.1v-0.1L64.7,72l7.5-18.4c3.5-8.5,9.7-15.4,17.4-19.6C97.4,31.7,105.4,30.1,113.6,29.2z"/>
<path class="st4" d="M77.9,93.1C77,93,76,93,75.1,93v-0.1l-9.5-19c8.5-4.5,17.5-8.2,26.9-10.9L78.4,92.4
	C78.2,92.6,78.1,92.9,77.9,93.1z"/>
</svg>